<?xml version="1.0" encoding="UTF-8"?>
<svg version="1.1" xmlns="http://www.w3.org/2000/svg" width="100" height="100">
<path d="M0 0 C8.7506151 6.42721946 14.51001895 13.3796895 17 24 C18.70861134 40.57428266 15.31992522 54.38051772 4.96484375 67.59765625 C-3.75902905 77.79858688 -16.18113315 86.96625908 -30.02368164 88.17700195 C-42.93157855 88.54723188 -53.08162522 88.47600878 -63.375 79.75 C-71.4064485 71.97351812 -75.04661001 63.97198873 -75.9609375 52.796875 C-76.18574924 36.70035468 -69.46639912 23.20260774 -58.75390625 11.55859375 C-44.38622171 -2.38443016 -18.51849011 -11.12302224 0 0 Z M-52.5 13.5 C-54.01973425 14.98000264 -55.52205529 16.47826434 -57 18 C-57.85851562 18.82757812 -57.85851562 18.82757812 -58.734375 19.671875 C-66.68238756 27.94764065 -70.56306761 39.71023082 -71 51 C-70.48156737 60.42030031 -67.23111494 69.30581006 -60.3125 75.875 C-50.81934422 83.31130536 -40.69341473 84.34082954 -29 83 C-25.03099761 82.13421271 -21.62010984 80.82718478 -18 79 C-17.16210938 78.5875 -16.32421875 78.175 -15.4609375 77.75 C-5.09016421 72.09905233 2.80389069 63.55459703 8 53 C8.4125 52.18273438 8.825 51.36546875 9.25 50.5234375 C13.33895379 41.12452288 13.90154558 29.15482266 10.4375 19.4375 C6.18582487 10.72675095 0.12634889 5.25101699 -9 2 C-25.09903141 -2.55304136 -40.15944234 2.66032098 -52.5 13.5 Z " fill="#F5F6FA" transform="translate(79,8)"/>
<path d="M0 0 C6.73224435 5.07170989 11.22573147 10.09804909 13.04296875 18.5390625 C14.76518066 33.46615527 11.2658048 45.56181491 2.04296875 57.5390625 C-5.92031098 66.45679615 -17.55409132 74.00623575 -29.71484375 74.77734375 C-40.53918469 75.05511353 -48.94693489 74.48670893 -57.33203125 66.9140625 C-64.67391551 58.78448621 -65.77822393 50.24570113 -65.3359375 39.66015625 C-64.46905461 27.74391336 -57.84623175 16.97708105 -49.39453125 8.7890625 C-36.61944162 -2.12176674 -15.53700048 -9.57357345 0 0 Z M-44.95703125 12.5390625 C-45.55 13.01601563 -46.14296875 13.49296875 -46.75390625 13.984375 C-53.46170112 19.89079615 -59.46773212 30.77232275 -60.23046875 39.76171875 C-60.47083961 48.84958628 -59.78291552 56.06353996 -53.53515625 63.15234375 C-46.6163454 69.45738912 -39.86238861 70.154695 -30.8125 69.94921875 C-17.92535525 68.5782459 -7.96353487 60.55709664 0.25 51.015625 C7.2402005 41.36031537 9.07533765 31.18840697 8.04296875 19.5390625 C5.5981731 11.35110465 1.2094759 7.10988606 -5.89453125 2.7265625 C-19.79004375 -2.59185268 -34.41592414 3.3270515 -44.95703125 12.5390625 Z " fill="#F5F6FA" transform="translate(75.95703125,14.4609375)"/>
<path d="M0 0 C1.85546875 0.296875 1.85546875 0.296875 4 1 C8.10477658 6.76887519 8.10477658 6.76887519 7.75 10.9375 C7.5025 11.618125 7.255 12.29875 7 13 C4.625 13.1875 4.625 13.1875 2 13 C-0.20914 9.68629 -0.22481553 8.6553979 -0.125 4.8125 C-0.10695312 3.91144531 -0.08890625 3.01039062 -0.0703125 2.08203125 C-0.04710937 1.39496094 -0.02390625 0.70789062 0 0 Z " fill="#F4F6FA" transform="translate(49,58)"/>
<path d="M0 0 C2.75 1.3125 2.75 1.3125 5 3 C5.640625 5.10546875 5.640625 5.10546875 6 7 C4.39620659 7.05416188 2.79188594 7.09286638 1.1875 7.125 C0.29417969 7.14820313 -0.59914063 7.17140625 -1.51953125 7.1953125 C-4 7 -4 7 -7 5 C-7.1875 2.375 -7.1875 2.375 -7 0 C-4.24779828 -1.37610086 -2.93781238 -0.81985462 0 0 Z " fill="#F5F6FA" transform="translate(36,44)"/>
<path d="M0 0 C2.375 -0.1875 2.375 -0.1875 5 0 C7.20914 3.31371 7.22481553 4.3446021 7.125 8.1875 C7.10695313 9.08855469 7.08890625 9.98960938 7.0703125 10.91796875 C7.03550781 11.94857422 7.03550781 11.94857422 7 13 C5.14453125 12.703125 5.14453125 12.703125 3 12 C-1.10477658 6.23112481 -1.10477658 6.23112481 -0.75 2.0625 C-0.5025 1.381875 -0.255 0.70125 0 0 Z " fill="#F5F6F9" transform="translate(44,29)"/>
<path d="M0 0 C0.79148437 -0.01417969 1.58296875 -0.02835938 2.3984375 -0.04296875 C4.625 0.1875 4.625 0.1875 7.625 2.1875 C7.8125 4.8125 7.8125 4.8125 7.625 7.1875 C5.08205775 8.11220627 3.33149479 8.46117377 0.76953125 7.46875 C-4.17915617 4.77503149 -4.17915617 4.77503149 -5.375 1.1875 C-3.79539731 -0.39210269 -2.17963184 0.01763456 0 0 Z " fill="#F5F6F9" transform="translate(63.375,48.8125)"/>
<path d="M0 0 C0.99 0 1.98 0 3 0 C4.6290678 4.79137588 5.20577428 8.05632546 4 13 C2.33388095 13.042721 0.66617115 13.04063832 -1 13 C-2 12 -2 12 -2.1875 8.1875 C-2.1585691 4.96459799 -1.82970185 2.74455277 0 0 Z " fill="#F5F6FA" transform="translate(43,60)"/>
<path d="M0 0 C1.19109375 0.13535156 1.19109375 0.13535156 2.40625 0.2734375 C4.5 0.625 4.5 0.625 6.5 1.625 C6.5 2.615 6.5 3.605 6.5 4.625 C2.59121666 7.23085556 -0.96121966 6.84821871 -5.5 6.625 C-6.5 5.625 -6.5 5.625 -6.5625 3.0625 C-6.541875 2.258125 -6.52125 1.45375 -6.5 0.625 C-4.01458657 -0.61770671 -2.73584621 -0.32865685 0 0 Z " fill="#F5F6FA" transform="translate(33.5,52.375)"/>
<path d="M0 0 C1 1 1 1 1.0625 3.5625 C1.041875 4.366875 1.02125 5.17125 1 6 C-3.94367454 7.20577428 -7.20862412 6.6290678 -12 5 C-12 4.01 -12 3.02 -12 2 C-8.09121666 -0.60585556 -4.53878034 -0.22321871 0 0 Z " fill="#F5F6FA" transform="translate(72,41)"/>
<path d="M0 0 C1.66611905 -0.042721 3.33382885 -0.04063832 5 0 C6 1 6 1 6.1875 4.8125 C6.1585691 8.03540201 5.82970185 10.25544723 4 13 C3.01 13 2.02 13 1 13 C-0.6290678 8.20862412 -1.20577428 4.94367454 0 0 Z " fill="#F5F6FA" transform="translate(53,27)"/>
<path d="M0 0 C-0.3185557 3.50411265 -0.69067447 5.5840105 -2.8125 8.4375 C-5 10 -5 10 -7.25 9.75 C-9 9 -9 9 -9.75 7.25 C-9.8325 6.5075 -9.915 5.765 -10 5 C-6.78492781 1.11974046 -5.08744585 0 0 0 Z " fill="#F5F6FA" transform="translate(40,60)"/>
<path d="M0 0 C1.75 0.75 1.75 0.75 2.5 2.5 C2.75 4.75 2.75 4.75 1.1875 6.9375 C-1.6659895 9.05932553 -3.74588735 9.4314443 -7.25 9.75 C-6.9314443 6.24588735 -6.55932553 4.1659895 -4.4375 1.3125 C-2.25 -0.25 -2.25 -0.25 0 0 Z " fill="#F5F6FA" transform="translate(67.25,30.25)"/>
<path d="M0 0 C3.93383553 0.5619765 6.87020891 1.49616713 10 4 C10.375 6.625 10.375 6.625 10 9 C9 10 9 10 6.4375 10.0625 C5.633125 10.041875 4.82875 10.02125 4 10 C0 3.375 0 3.375 0 0 Z " fill="#F5F6F9" transform="translate(55,55)"/>
<path d="M0 0 C1.2065625 0.0309375 1.2065625 0.0309375 2.4375 0.0625 C6.4375 6.6875 6.4375 6.6875 6.4375 10.0625 C2.50366447 9.5005235 -0.43270891 8.56633287 -3.5625 6.0625 C-3.9375 3.4375 -3.9375 3.4375 -3.5625 1.0625 C-2.5625 0.0625 -2.5625 0.0625 0 0 Z " fill="#F5F6F9" transform="translate(38.5625,34.9375)"/>
</svg>
